<?xml version="1.0" standalone="no"?>
<!DOCTYPE svg PUBLIC "-//W3C//DTD SVG 20010904//EN"
 "http://www.w3.org/TR/2001/REC-SVG-20010904/DTD/svg10.dtd">
<svg version="1.0" xmlns="http://www.w3.org/2000/svg"
 width="500.000000pt" height="500.000000pt" viewBox="0 0 500.000000 500.000000"
 preserveAspectRatio="xMidYMid meet">

<g transform="translate(0.000000,500.000000) scale(0.100000,-0.100000)"
fill="#000000" stroke="none">
<path d="M2265 3844 c-38 -7 -135 -16 -215 -19 -178 -8 -223 -17 -325 -66 -80
-38 -181 -106 -172 -115 3 -3 58 2 123 10 65 9 122 16 126 16 4 0 9 -321 10
-712 l3 -713 131 -3 131 -3 7 363 c14 756 26 1113 39 1121 7 4 53 30 102 58
73 42 136 84 115 78 -3 -1 -36 -8 -75 -15z"/>
<path d="M3110 2769 c-25 -5 -112 -13 -195 -18 -118 -7 -160 -13 -198 -30 -46
-20 -187 -106 -187 -114 0 -2 24 -1 53 4 28 4 78 10 110 13 l57 6 0 -195 0
-195 109 0 108 0 7 38 c3 20 6 117 6 214 l0 178 68 34 c72 37 133 77 117 75
-5 -1 -30 -5 -55 -10z"/>
<path d="M1530 2160 c-11 -7 -12 -10 -2 -10 11 0 13 -20 10 -95 l-3 -95 47 0
c26 0 50 5 53 10 4 6 -10 10 -34 10 l-41 0 0 83 c0 51 5 88 12 95 9 9 8 12 -7
12 -11 0 -27 -5 -35 -10z"/>
<path d="M1900 2160 c-11 -7 -12 -10 -2 -10 11 0 13 -20 10 -95 l-3 -95 47 0
c26 0 50 5 53 10 4 6 -10 10 -34 10 l-41 0 0 83 c0 51 5 88 12 95 9 9 8 12 -7
12 -11 0 -27 -5 -35 -10z"/>
<path d="M2060 2160 c-11 -7 -12 -10 -2 -10 11 0 13 -20 10 -95 -2 -79 -1 -95
12 -95 12 0 14 15 12 91 -2 60 1 95 8 105 10 11 9 14 -6 14 -11 0 -26 -5 -34
-10z"/>
<path d="M2154 2158 c-3 -5 11 -8 31 -8 l37 0 -4 -95 c-3 -84 -1 -95 14 -95
20 0 33 17 17 22 -7 2 -9 29 -4 86 l8 82 33 0 c18 0 36 4 39 10 4 6 -26 9 -80
7 -48 -1 -89 -5 -91 -9z"/>
<path d="M2679 2163 c0 -5 0 -49 1 -98 1 -50 -4 -103 -9 -118 -13 -34 -6 -35
15 -1 12 17 19 57 23 125 5 90 4 99 -11 99 -10 0 -18 -3 -19 -7z"/>
<path d="M3055 2160 c-18 -8 -17 -9 7 -9 15 -1 39 -11 54 -24 21 -18 27 -32
27 -65 0 -53 -24 -82 -67 -82 -73 1 -110 89 -63 150 6 9 0 3 -15 -12 -32 -32
-36 -73 -13 -117 44 -86 183 -28 185 76 0 57 -65 104 -115 83z"/>
<path d="M3214 2158 c-3 -5 11 -8 31 -8 l37 0 -4 -95 c-3 -84 -1 -95 14 -95 9
0 20 5 23 10 3 6 1 10 -5 10 -7 0 -10 27 -8 83 l3 82 35 3 c19 2 39 8 45 13 6
6 -23 8 -79 7 -48 -2 -90 -6 -92 -10z"/>
<path d="M3430 2160 c-10 -6 -11 -10 -2 -10 15 0 17 -142 2 -171 -9 -17 -7
-19 17 -19 15 0 23 4 18 8 -6 4 -8 44 -5 105 5 98 2 107 -30 87z"/>
<path d="M1753 2147 c-5 -6 -22 -43 -38 -82 -15 -38 -35 -78 -43 -87 -14 -16
-13 -18 7 -18 12 0 20 4 16 9 -7 13 15 61 29 61 6 0 21 3 33 6 18 5 23 0 34
-35 12 -40 39 -56 54 -31 3 6 0 10 -7 10 -8 0 -22 33 -37 85 -24 89 -33 103
-48 82z m16 -79 c1 -12 -6 -18 -19 -18 -24 0 -23 -2 -8 40 10 30 12 32 19 14
4 -10 8 -27 8 -36z"/>
<path d="M2418 2113 c-11 -27 -31 -72 -43 -100 -19 -41 -21 -53 -10 -53 8 0
12 6 10 13 -8 21 29 57 60 60 27 2 31 -2 39 -35 6 -25 15 -38 26 -38 24 0 32
11 16 24 -7 6 -24 48 -36 94 -13 45 -28 82 -32 82 -5 0 -18 -21 -30 -47z m32
-32 c8 -29 7 -31 -17 -31 -20 0 -24 4 -18 18 4 9 10 25 12 35 7 22 11 18 23
-22z"/>
<path d="M2766 2152 c5 -4 24 -30 41 -58 26 -43 30 -59 26 -93 -5 -35 -3 -41
13 -41 16 0 19 6 16 44 -3 34 3 55 28 100 l32 56 -24 -1 c-12 0 -17 -3 -11 -6
9 -3 7 -15 -8 -46 l-21 -41 -24 40 c-13 21 -24 42 -24 47 0 4 -12 7 -27 7 -16
0 -23 -4 -17 -8z"/>
<path d="M1791 1801 c-16 -88 -65 -191 -122 -255 l-43 -48 45 6 c24 4 254 9
512 12 l467 6 0 87 0 86 -335 -3 c-207 -2 -335 0 -335 6 0 5 6 15 14 21 13 11
46 81 61 129 l6 22 -129 0 -129 0 -12 -69z"/>
<path d="M2750 1562 c0 -170 -5 -358 -11 -418 -31 -323 -140 -553 -334 -702
-21 -16 -9 -12 41 13 223 113 395 332 472 600 34 118 35 130 41 478 l6 337
-107 0 -108 0 0 -308z"/>
</g>
</svg>
